# xmcd
#
# Track frame offsets:
#	150
#	12058
#	25334
#	39477
#	50950
#	65948
#	80254
#	89904
#	98819
#	110555
#	122818
#	133360
#	147030
#	161907
#	172577
#
# Disc length: 2465 seconds
#
# Revision: 1
# Processed by: cddbd v1.5.2PL0 Copyright (c) Steve Scherf et al.
# Submitted via: audiograbber 1.83.01
#
DISCID=d6099f0f
DTITLE=Foggy Hollow Music Co - Foggy Hollow Music Co
DYEAR=1900
DGENRE=Bluegrass Gospel
TTITLE0=On Time God
TTITLE1=Broken Vessel
TTITLE2=My Name Is Lazarus
TTITLE3=This world Is Not My Home
TTITLE4=Where Would I Go
TTITLE5=I Know A Name
TTITLE6=Carry On
TTITLE7=White Oak On the Hill
TTITLE8=Bible For A Road Map
TTITLE9=One More River
TTITLE10=Down Life's Highway
TTITLE11=I've Just Seen The Rock of Ages
TTITLE12=The First Step to Heaven
TTITLE13=Why Me LORD
TTITLE14=I Saw The Light
EXTD=
EXTT0=
EXTT1=
EXTT2=
EXTT3=
EXTT4=
EXTT5=
EXTT6=
EXTT7=
EXTT8=
EXTT9=
EXTT10=
EXTT11=
EXTT12=
EXTT13=
EXTT14=
PLAYORDER=
